HIERARCHY
ROOT Hips
{
	OFFSET 0.00000 0.00000 0.00000
	CHANNELS 6 Xposition Yposition Zposition Zrotation Yrotation Xrotation 
	JOINT LHipJoint
	{
		OFFSET 0 0 0
		CHANNELS 3 Zrotation Yrotation Xrotation
		JOINT LeftUpLeg
		{
			OFFSET 1.43652 -1.81092 0.91346
			CHANNELS 3 Zrotation Yrotation Xrotation
			JOINT LeftLeg
			{
				OFFSET 2.45984 -6.75837 0.00000
				CHANNELS 3 Zrotation Yrotation Xrotation
				JOINT LeftFoot
				{
					OFFSET 2.63718 -7.24559 0.00000
					CHANNELS 3 Zrotation Yrotation Xrotation
					JOINT LeftToeBase
					{
						OFFSET 0.19690 -0.54098 2.12239
						CHANNELS 3 Zrotation Yrotation Xrotation
						End Site
						{
							OFFSET 0.00000 -0.00000 1.10116
						}
					}
				}
			}
		}
	}
	JOINT RHipJoint
	{
		OFFSET 0 0 0
		CHANNELS 3 Zrotation Yrotation Xrotation
		JOINT RightUpLeg
		{
			OFFSET -1.35116 -1.81092 0.91345
			CHANNELS 3 Zrotation Yrotation Xrotation
			JOINT RightLeg
			{
				OFFSET -2.55576 -7.02189 0.00000
				CHANNELS 3 Zrotation Yrotation Xrotation
				JOINT RightFoot
				{
					OFFSET -2.61938 -7.19669 0.00000
					CHANNELS 3 Zrotation Yrotation Xrotation
					JOINT RightToeBase
					{
						OFFSET -0.32509 -0.89318 2.23646
						CHANNELS 3 Zrotation Yrotation Xrotation
						End Site
						{
							OFFSET -0.00000 -0.00000 1.19625
						}
					}
				}
			}
		}
	}
	JOINT LowerBack
	{
		OFFSET 0 0 0
		CHANNELS 3 Zrotation Yrotation Xrotation
		JOINT Spine
		{
			OFFSET 0.05193 2.08077 -0.11958
			CHANNELS 3 Zrotation Yrotation Xrotation
			JOINT Spine1
			{
				OFFSET 0.04960 2.08447 0.01967
				CHANNELS 3 Zrotation Yrotation Xrotation
				JOINT Neck
				{
					OFFSET 0 0 0
					CHANNELS 3 Zrotation Yrotation Xrotation
					JOINT Neck1
					{
						OFFSET -0.10699 1.82066 0.27584
						CHANNELS 3 Zrotation Yrotation Xrotation
						JOINT Head
						{
							OFFSET 0.14949 1.84747 -0.32279
							CHANNELS 3 Zrotation Yrotation Xrotation
							End Site
							{
								OFFSET 0.04969 1.88916 -0.14562
							}
						}
					}
				}
				JOINT LeftShoulder
				{
					OFFSET 0 0 0
					CHANNELS 3 Zrotation Yrotation Xrotation
					JOINT LeftArm
					{
						OFFSET 3.73629 1.27211 -0.12847
						CHANNELS 3 Zrotation Yrotation Xrotation
						JOINT LeftForeArm
						{
							OFFSET 5.10995 -0.00000 0.00000
							CHANNELS 3 Zrotation Yrotation Xrotation
							JOINT LeftHand
							{
								OFFSET 3.21207 -0.00000 0.00000
								CHANNELS 3 Zrotation Yrotation Xrotation
								JOINT LeftFingerBase
								{
									OFFSET 0 0 0
									CHANNELS 3 Zrotation Yrotation Xrotation
									JOINT LeftHandIndex1
									{
										OFFSET 0.63349 -0.00000 0.00000
										CHANNELS 3 Zrotation Yrotation Xrotation
										End Site
										{
											OFFSET 0.51074 -0.00000 0.00000
										}
									}
								}
								JOINT LThumb
								{
									OFFSET 0 0 0
									CHANNELS 3 Zrotation Yrotation Xrotation
									End Site
									{
										OFFSET 0.51853 -0.00000 0.51853
									}
								}
							}
						}
					}
				}
				JOINT RightShoulder
				{
					OFFSET 0 0 0
					CHANNELS 3 Zrotation Yrotation Xrotation
					JOINT RightArm
					{
						OFFSET -3.70251 1.29541 -0.35354
						CHANNELS 3 Zrotation Yrotation Xrotation
						JOINT RightForeArm
						{
							OFFSET -5.25109 -0.00000 0.00000
							CHANNELS 3 Zrotation Yrotation Xrotation
							JOINT RightHand
							{
								OFFSET -3.28364 -0.00000 0.00000
								CHANNELS 3 Zrotation Yrotation Xrotation
								JOINT RightFingerBase
								{
									OFFSET 0 0 0
									CHANNELS 3 Zrotation Yrotation Xrotation
									JOINT RightHandIndex1
									{
										OFFSET -0.59974 -0.00000 0.00000
										CHANNELS 3 Zrotation Yrotation Xrotation
										End Site
										{
											OFFSET -0.48353 -0.00000 0.00000
										}
									}
								}
								JOINT RThumb
								{
									OFFSET 0 0 0
									CHANNELS 3 Zrotation Yrotation Xrotation
									End Site
									{
										OFFSET -0.49091 -0.00000 0.49091
									}
								}
							}
						}
					}
				}
			}
		}
	}
}
MOTION
Frames: 15
Frame Time: .0083333
4.0713 17.3592 -29.2776 0 0 0 0 0 0 -21 0 0 0 0 0 0 0 0 0 0 0 0 0 0 21 0 0 0 0 0 0 0 0 0 0 0 0 0 0 0 0 0 0 0 0 0 0 -16 0 0 21 0 0 11 0 0 0 -8 0 0 0 0 0 0 0 0 0 0 0 0 0 0 0 0 0 0 0 0 8 0 0 0 0 0 0 0 0 0 0 0 0 0 0 0 0 0
4.0713 17.3592 -29.2776 -8.9852 -10.3712 9.2376 0.0000 0.0000 0.0000 -11.5736 -4.1289 -23.0214 4.3039 12.5542 37.7218 1.0763 1.8662 -20.3541 0.0304 1.1258 3.0951 0.0000 0.0000 0.0000 22.9714 15.0349 -21.8914 -3.8452 -11.9516 35.5609 -0.9365 -3.1017 -19.6509 -0.0222 -0.9609 2.6413 3.1489 0.9823 -1.5267 3.4285 1.2963 -1.6372 1.7635 0.6339 -0.8342 -15.6741 -11.4311 -17.8151 16.9473 -15.2460 15.4433 6.1469 -6.4368 10.5001 0.0000 0.0000 0.0000 -83.5721 5.3469 62.5506 87.9970 -59.9848 -58.2654 -0.0000 0.0000 -36.8881 30.6873 32.4084 17.6440 -7.1250 0.0000 -0.0000 -1.7793 66.4064 -0.9185 0.0000 0.0000 0.0000 83.6672 -9.4354 51.2496 -64.3594 57.3639 -37.9911 0.0000 -0.0000 -73.6635 -4.5684 -12.9409 1.0251 7.1250 -0.0000 -0.0000 20.2507 -42.0342 1.5521
4.0839 17.3580 -29.2610 -8.8801 -10.3829 9.0938 0.0000 0.0000 0.0000 -11.8094 -4.0116 -22.6577 4.2567 12.4944 37.5040 1.0795 1.8954 -20.3964 0.0259 1.0396 2.8578 0.0000 0.0000 0.0000 22.8367 14.6842 -21.7920 -3.8493 -11.9571 35.5804 -0.9567 -2.7932 -19.6838 -0.0233 -0.9849 2.7073 3.2487 1.0049 -1.6683 3.3821 1.3062 -1.4062 1.6648 0.6411 -0.5143 -15.9809 -11.6857 -17.9907 17.2049 -15.5552 15.3885 6.2213 -6.5629 10.6240 0.0000 0.0000 0.0000 -83.6765 5.0731 62.6871 87.8364 -59.9823 -58.1264 -0.0000 0.0000 -36.9942 30.8145 32.0191 17.5493 -7.1250 0.0000 -0.0000 -1.3828 66.0341 -0.7019 0.0000 0.0000 0.0000 83.6571 -9.1881 50.9654 -64.3895 57.3705 -38.0164 0.0000 -0.0000 -73.5924 -4.7124 -13.0712 1.0681 7.1250 -0.0000 -0.0000 20.1706 -42.1708 1.4740
4.0970 17.3613 -29.2441 -8.7788 -10.3989 8.9446 0.0000 0.0000 0.0000 -12.0336 -3.9222 -22.3592 4.2252 12.4542 37.3583 1.0838 1.9080 -20.4410 0.0286 1.0910 2.9992 0.0000 0.0000 0.0000 22.7192 14.2824 -21.6191 -3.8322 -11.9337 35.4978 -0.9700 -2.4849 -19.6572 -0.0219 -0.9551 2.6253 3.2582 0.8625 -1.8423 3.3381 1.1036 -1.3594 1.6149 0.5408 -0.3665 -15.8118 -11.5699 -17.4155 17.1411 -15.4479 15.0253 6.2034 -6.5494 10.3475 0.0000 -0.0000 0.0000 -83.7413 5.2782 62.3836 87.7333 -59.9806 -58.0371 -0.0000 0.0000 -37.0974 30.6241 32.4923 17.6405 -7.1250 0.0000 -0.0000 -1.9146 66.4758 -0.9915 0.0000 -0.0000 0.0000 83.6229 -9.3119 51.2541 -64.5947 57.4149 -38.1893 0.0000 -0.0000 -73.5772 -4.9888 -13.1974 1.1417 7.1250 -0.0000 -0.0000 19.9759 -42.3169 1.3830
4.1080 17.3683 -29.2290 -8.6980 -10.5591 8.8407 0.0000 0.0000 0.0000 -12.2353 -3.7416 -22.1470 4.1967 12.4177 37.2261 1.0859 1.9302 -20.4696 0.0312 1.1398 3.1334 0.0000 0.0000 0.0000 22.6049 14.0208 -21.4736 -3.8170 -11.9128 35.4241 -0.9807 -2.1560 -19.6021 -0.0222 -0.9624 2.6453 3.2778 0.8950 -1.9221 3.3032 1.1336 -1.1782 1.5715 0.5583 -0.1347 -15.9612 -11.7992 -17.5723 17.3034 -15.7388 14.9403 6.2202 -6.6688 10.4305 -0.0000 -0.0000 0.0000 -83.8409 5.1412 62.4148 87.6754 -59.9796 -57.9869 -0.0000 0.0000 -37.1311 30.6745 32.6555 17.7477 -7.1250 0.0000 -0.0000 -1.9448 66.6619 -1.0154 -0.0000 -0.0000 0.0000 83.6514 -9.1125 51.0499 -64.5072 57.3960 -38.1156 0.0000 -0.0000 -73.4626 -4.7958 -13.1051 1.0898 7.1250 -0.0000 -0.0000 20.1106 -42.2108 1.4484
4.1197 17.3715 -29.2150 -8.6318 -10.6571 8.7387 0.0000 0.0000 0.0000 -12.4143 -3.6128 -21.9365 4.1762 12.3912 37.1303 1.0904 1.9601 -20.5233 0.0326 1.1649 3.2026 0.0000 0.0000 0.0000 22.5069 13.7225 -21.3300 -3.7990 -11.8880 35.3368 -0.9914 -1.8360 -19.5562 -0.0231 -0.9815 2.6978 3.3239 0.8708 -2.0384 3.2717 1.0881 -1.0568 1.5157 0.5373 0.0568 -16.0587 -11.9214 -17.4177 17.4367 -15.9117 14.7409 6.2502 -6.7539 10.3868 0.0000 0.0000 0.0000 -83.9328 5.1393 62.3505 87.6218 -59.9786 -57.9406 -0.0000 0.0000 -37.1676 30.7404 32.6441 17.7861 -7.1250 0.0000 -0.0000 -1.8482 66.6695 -0.9653 0.0000 0.0000 0.0000 83.6547 -9.0473 51.0029 -64.5213 57.3991 -38.1275 0.0000 -0.0000 -73.3769 -4.7960 -13.1093 1.0902 7.1250 -0.0000 -0.0000 20.1118 -42.2150 1.4463
4.1300 17.3738 -29.2054 -8.6159 -10.7994 8.6840 0.0000 0.0000 0.0000 -12.5227 -3.4703 -21.8128 4.1636 12.3750 37.0718 1.0936 1.9986 -20.5697 0.0341 1.1914 3.2757 0.0000 0.0000 0.0000 22.4574 13.5392 -21.2231 -3.7817 -11.8642 35.2531 -0.9968 -1.5747 -19.4915 -0.0236 -0.9927 2.7287 3.3799 0.8595 -2.1281 3.2600 1.0626 -0.9698 1.4740 0.5259 0.1976 -16.1747 -12.0290 -17.2020 17.5927 -16.0690 14.5144 6.2964 -6.8351 10.3242 0.0000 0.0000 0.0000 -84.0286 5.1728 62.2774 87.5879 -59.9780 -57.9112 -0.0000 0.0000 -37.1692 30.8439 32.5700 17.8209 -7.1250 0.0000 -0.0000 -1.6629 66.6226 -0.8667 0.0000 0.0000 0.0000 83.6571 -9.0040 50.9744 -64.5244 57.3997 -38.1301 0.0000 -0.0000 -73.2852 -4.7876 -13.1098 1.0883 7.1250 -0.0000 -0.0000 20.1193 -42.2145 1.4471
4.1394 17.3751 -29.1992 -8.6031 -10.9375 8.6378 0.0000 0.0000 0.0000 -12.6142 -3.3473 -21.7225 4.1565 12.3658 37.0387 1.0960 2.0412 -20.6106 0.0352 1.2113 3.3305 0.0000 0.0000 0.0000 22.4117 13.4197 -21.1431 -3.7700 -11.8478 35.1958 -0.9995 -1.3768 -19.4326 -0.0236 -0.9928 2.7290 3.4220 0.8492 -2.1805 3.2546 1.0414 -0.8976 1.4461 0.5164 0.3019 -16.2943 -12.1374 -17.0105 17.7364 -16.2243 14.3146 6.3387 -6.9151 10.2747 0.0000 0.0000 0.0000 -84.1287 5.2134 62.2155 87.5633 -59.9776 -57.8899 -0.0000 0.0000 -37.1363 30.9683 32.4633 17.8545 -7.1250 0.0000 -0.0000 -1.4302 66.5474 -0.7429 0.0000 0.0000 0.0000 83.6595 -8.9657 50.9419 -64.5143 57.3976 -38.1215 0.0000 -0.0000 -73.1913 -4.7836 -13.1092 1.0874 7.1250 -0.0000 -0.0000 20.1224 -42.2136 1.4479
4.1478 17.3752 -29.1972 -8.6161 -11.0774 8.6153 0.0000 0.0000 0.0000 -12.6600 -3.2404 -21.6860 4.1560 12.3652 37.0365 1.0976 2.0855 -20.6444 0.0362 1.2289 3.3789 0.0000 0.0000 0.0000 22.3950 13.3905 -21.0946 -3.7619 -11.8366 35.1563 -0.9983 -1.2599 -19.3727 -0.0229 -0.9768 2.6850 3.4615 0.8363 -2.1954 3.2629 1.0202 -0.8533 1.4327 0.5064 0.3563 -16.3917 -12.2332 -16.8084 17.8462 -16.3629 14.1272 6.3692 -6.9898 10.2192 0.0000 -0.0000 0.0000 -84.2296 5.2738 62.1419 87.5433 -59.9772 -57.8726 -0.0000 0.0000 -37.0783 31.0888 32.3568 17.8851 -7.1250 0.0000 -0.0000 -1.2043 66.4709 -0.6234 0.0000 -0.0000 0.0000 83.6581 -8.9355 50.9347 -64.4941 57.3932 -38.1046 0.0000 -0.0000 -73.1092 -4.8079 -13.1222 1.0940 7.1250 -0.0000 -0.0000 20.1060 -42.2282 1.4390
4.1551 17.3745 -29.1989 -8.6393 -11.2233 8.6068 0.0000 0.0000 0.0000 -12.6801 -3.1439 -21.6862 4.1586 12.3685 37.0484 1.0975 2.1304 -20.6641 0.0374 1.2489 3.4341 0.0000 0.0000 0.0000 22.3902 13.4436 -21.0657 -3.7576 -11.8307 35.1356 -0.9949 -1.2068 -19.3182 -0.0222 -0.9620 2.6444 3.4868 0.8251 -2.1691 3.2786 1.0046 -0.8224 1.4342 0.4988 0.3734 -16.4711 -12.3144 -16.6400 17.9317 -16.4780 13.9622 6.3920 -7.0526 10.1692 -0.0000 0.0000 0.0000 -84.3294 5.3261 62.0624 87.5208 -59.9768 -57.8531 -0.0000 0.0000 -37.0070 31.1711 32.3422 17.9328 -7.1250 0.0000 -0.0000 -1.0839 66.4801 -0.5613 -0.0000 0.0000 0.0000 83.6581 -8.8945 50.9369 -64.4757 57.3892 -38.0890 0.0000 -0.0000 -73.0383 -4.8546 -13.1434 1.1064 7.1250 -0.0000 -0.0000 20.0730 -42.2528 1.4236
4.1617 17.3732 -29.2037 -8.6727 -11.3654 8.6048 0.0000 0.0000 0.0000 -12.6772 -3.0654 -21.7095 4.1639 12.3754 37.0731 1.0962 2.1782 -20.6749 0.0387 1.2698 3.4914 0.0000 0.0000 0.0000 22.3982 13.5568 -21.0455 -3.7562 -11.8288 35.1289 -0.9902 -1.2053 -19.2727 -0.0219 -0.9562 2.6282 3.5071 0.8136 -2.1050 3.2995 0.9912 -0.7984 1.4432 0.4921 0.3621 -16.5296 -12.3853 -16.4926 17.9941 -16.5770 13.8107 6.4059 -7.1075 10.1206 -0.0000 0.0000 0.0000 -84.4238 5.3598 61.9772 87.4982 -59.9763 -57.8335 -0.0000 0.0000 -36.9479 31.2324 32.3627 17.9829 -7.1250 0.0000 -0.0000 -1.0120 66.5199 -0.5250 -0.0000 0.0000 0.0000 83.6613 -8.8370 50.9461 -64.4635 57.3865 -38.0787 0.0000 -0.0000 -72.9812 -4.9126 -13.1809 1.1228 7.1250 -0.0000 -0.0000 20.0358 -42.2938 1.3995
4.1685 17.3720 -29.2076 -8.6796 -11.4994 8.5822 0.0000 0.0000 0.0000 -12.7058 -2.9885 -21.7092 4.1685 12.3813 37.0946 1.0957 2.2223 -20.6904 0.0401 1.2922 3.5531 0.0000 0.0000 0.0000 22.3804 13.6405 -21.0176 -3.7567 -11.8294 35.1313 -0.9870 -1.1900 -19.2368 -0.0215 -0.9472 2.6035 3.5073 0.7987 -2.0340 3.3119 0.9739 -0.7665 1.4546 0.4835 0.3548 -16.5647 -12.4516 -16.3656 18.0268 -16.6682 13.6768 6.4065 -7.1587 10.0748 -0.0000 -0.0000 0.0000 -84.5119 5.3898 61.8847 87.4970 -59.9763 -57.8325 -0.0000 0.0000 -36.9099 31.2974 32.3542 18.0220 -7.1250 0.0000 -0.0000 -0.9183 66.5302 -0.4766 -0.0000 -0.0000 0.0000 83.6705 -8.7739 50.9559 -64.4483 57.3833 -38.0660 0.0000 -0.0000 -72.9419 -4.9795 -13.2161 1.1412 7.1250 -0.0000 -0.0000 19.9902 -42.3335 1.3755
4.1750 17.3708 -29.2125 -8.6985 -11.6493 8.5694 0.0000 0.0000 0.0000 -12.7201 -2.9048 -21.7199 4.1729 12.3870 37.1150 1.0946 2.2735 -20.7046 0.0411 1.3085 3.5980 0.0000 0.0000 0.0000 22.3741 13.7449 -20.9969 -3.7580 -11.8311 35.1372 -0.9837 -1.1746 -19.1984 -0.0213 -0.9418 2.5886 3.5161 0.7903 -1.9597 3.3247 0.9652 -0.7334 1.4618 0.4792 0.3471 -16.6415 -12.5075 -16.1877 18.1312 -16.7515 13.4979 6.4429 -7.2064 10.0151 0.0000 0.0000 0.0000 -84.5903 5.4088 61.7849 87.5230 -59.9768 -57.8550 -0.0000 0.0000 -36.9097 31.3771 32.3332 18.0650 -7.1250 0.0000 -0.0000 -0.7976 66.5318 -0.4140 0.0000 0.0000 0.0000 83.6887 -8.7007 50.9679 -64.4370 57.3808 -38.0564 0.0000 -0.0000 -72.9146 -5.0391 -13.2504 1.1578 7.1250 -0.0000 -0.0000 19.9505 -42.3718 1.3527
4.1821 17.3699 -29.2158 -8.6858 -11.7671 8.5278 0.0000 0.0000 0.0000 -12.7730 -2.8460 -21.6875 4.1747 12.3893 37.1234 1.0938 2.3283 -20.7224 0.0419 1.3214 3.6335 0.0000 0.0000 0.0000 22.3373 13.7888 -20.9605 -3.7593 -11.8330 35.1437 -0.9823 -1.1349 -19.1693 -0.0213 -0.9422 2.5897 3.5139 0.7707 -1.8863 3.3257 0.9413 -0.6892 1.4628 0.4674 0.3513 -16.6987 -12.5678 -16.0419 18.2101 -16.8408 13.3539 6.4650 -7.2555 9.9700 0.0000 -0.0000 0.0000 -84.6595 5.4322 61.6842 87.5895 -59.9780 -57.9126 -0.0000 0.0000 -36.9365 31.4887 32.2753 18.1121 -7.1250 0.0000 -0.0000 -0.6122 66.5037 -0.3174 0.0000 -0.0000 0.0000 83.7137 -8.6264 50.9817 -64.4192 57.3769 -38.0415 0.0000 -0.0000 -72.9044 -5.1039 -13.2748 1.1749 7.1250 -0.0000 -0.0000 19.9030 -42.4013 1.3341
4.1885 17.3689 -29.2200 -8.6910 -11.9082 8.5014 0.0000 0.0000 0.0000 -12.8036 -2.7675 -21.6751 4.1765 12.3916 37.1317 1.0926 2.3842 -20.7383 0.0425 1.3309 3.6598 0.0000 0.0000 0.0000 22.3205 13.8645 -20.9367 -3.7601 -11.8341 35.1476 -0.9788 -1.1070 -19.1241 -0.0206 -0.9256 2.5441 3.5168 0.7603 -1.8132 3.3324 0.9298 -0.6507 1.4671 0.4619 0.3497 -16.7781 -12.6185 -15.8835 18.3122 -16.9195 13.2163 6.5020 -7.2997 9.9279 -0.0000 -0.0000 0.0000 -84.7213 5.4624 61.5830 87.6891 -59.9798 -57.9989 -0.0000 0.0000 -36.9791 31.6071 32.2639 18.1853 -7.1250 0.0000 -0.0000 -0.4435 66.5268 -0.2302 -0.0000 -0.0000 0.0000 83.7414 -8.5524 51.0014 -64.4020 57.3732 -38.0270 0.0000 -0.0000 -72.8980 -5.1670 -13.2945 1.1912 7.1250 -0.0000 -0.0000 19.8554 -42.4261 1.3178
